<?xml version="1.0" encoding="UTF-8"?>
<!DOCTYPE svg PUBLIC "-//W3C//DTD SVG 1.1//EN" "http://www.w3.org/Graphics/SVG/1.1/DTD/svg11.dtd">
<!-- Creator: CorelDRAW 2019 (64-Bit) -->
<svg xmlns="http://www.w3.org/2000/svg" xml:space="preserve" width="194.152mm" height="63.7248mm" version="1.1" style="shape-rendering:geometricPrecision; text-rendering:geometricPrecision; image-rendering:optimizeQuality; fill-rule:evenodd; clip-rule:evenodd"
viewBox="0 0 16378.14 5375.66"
 xmlns:xlink="http://www.w3.org/1999/xlink">
 <defs>
  <style type="text/css">
   <![CDATA[
    .fil1 {fill:black;fill-rule:nonzero}
    .fil0 {fill:#0184FF;fill-rule:nonzero}
   ]]>
  </style>
 </defs>
 <g id="Слой_x0020_1">
  <metadata id="CorelCorpID_0Corel-Layer"/>
  <g id="_897841312">
   <path class="fil0" d="M12888.11 512.76c-138.95,0 -254.71,-112.49 -254.71,-254.71 0,-142.25 115.76,-258.05 254.71,-258.05l2689.47 0c218.35,0 420.12,92.64 565.67,238.2 145.56,145.55 234.89,347.32 234.89,565.67l0 2689.47c0,201.8 -76.09,387.05 -201.8,529.3 -76.09,86 -172,155.46 -277.89,205.11l0 893.17c0,138.95 -115.76,254.74 -254.71,254.74 -89.31,0 -168.71,-46.34 -215.02,-115.8l-744.34 -965.96 -1796.28 0c-218.34,0 -420.12,-89.31 -565.7,-234.86 -145.55,-148.89 -234.86,-347.36 -234.86,-565.7 0,-142.25 112.47,-258.04 254.71,-258.04 142.25,0 258.05,115.79 258.05,258.04 0,79.4 29.76,152.16 82.7,201.8l0 3.31c52.93,49.6 125.7,82.7 205.1,82.7l1921.98 0c76.09,3.31 152.19,36.4 201.8,102.55l373.84 483 0 -330.83c0,-129.01 95.91,-241.47 228.25,-254.72 69.46,-9.9 135.61,-46.3 181.95,-95.94 43,-52.92 69.45,-119.07 69.45,-191.86l0 -2689.47c0,-79.4 -29.79,-152.16 -82.7,-205.11 -52.94,-52.91 -125.71,-86 -205.11,-86l-2689.47 0z"/>
   <path class="fil0" d="M12169.06 3303.69l763.49 990.23 -44.44 0 0 0c-218.32,0 -420.12,-89.33 -565.7,-234.88l0 0c-145.52,-148.89 -234.86,-347.36 -234.86,-565.67l0 0c0,-74.92 31.2,-142.49 81.51,-189.68z"/>
   <path class="fil0" d="M12184.11 3290.61l774.09 1003.3 -37.39 0 -758.47 -983.72c6.88,-6.93 14.14,-13.48 21.76,-19.59z"/>
   <path class="fil0" d="M12200.56 3278.52l782.9 1015.4 -40.28 0 -768.18 -995.65c8.08,-7.12 16.62,-13.71 25.57,-19.76z"/>
   <path class="fil0" d="M12215.28 3269.27l790.56 1024.65 -37.39 0 -777.59 -1008.51c7.8,-5.83 15.96,-11.23 24.42,-16.14z"/>
   <path class="fil0" d="M12234.33 3259.3l798.26 1034.62 -37.4 0 -786.81 -1020.48c8.33,-5.2 17,-9.92 25.96,-14.14z"/>
   <path class="fil0" d="M12253.81 3251.1l804.03 1042.82 -36.96 0 -795.04 -1030.44c9.02,-4.66 18.36,-8.81 27.97,-12.38z"/>
   <path class="fil0" d="M12271.21 3245.36l809.01 1048.56 -37.4 0 -800.5 -1038.24c9.35,-4.01 18.99,-7.45 28.89,-10.33z"/>
   <path class="fil0" d="M12292.95 3240.09l812.52 1053.83 -35.92 0 -806.52 -1046.03c9.72,-3.18 19.7,-5.8 29.91,-7.79z"/>
   <path class="fil0" d="M12316.97 3236.56l815.24 1057.36 -36.94 0 -811.55 -1051.85c10.82,-2.54 21.92,-4.4 33.25,-5.51z"/>
   <path class="fil0" d="M12337.9 3235.38l282.19 365.75c14.07,36.05 35.35,68.18 62.9,94.01l0 3.31 0 0c10.26,9.62 21.27,18.62 32.92,26.87l438.71 568.61 -37.43 0 -813.92 -1055.65c11.3,-1.73 22.86,-2.7 34.64,-2.89z"/>
   <path class="fil0" d="M12364.38 3236.27l240.91 312.45c6.29,34.29 18.42,66.41 35.78,94.77l-314.54 -407.67c5.2,-0.31 10.44,-0.5 15.72,-0.5l0 0c7.46,0 14.83,0.33 22.13,0.95zm398.04 516.25l417.43 541.4 -36.93 0 -458.25 -593.94c22.69,20.97 48.94,38.91 77.75,52.54zm-79.42 -54.7l-8.7 -11.27c2.83,2.94 5.73,5.8 8.7,8.58l0 2.69z"/>
   <path class="fil0" d="M12392.63 3240.28l208.12 269.73c1.1,20.67 4.23,40.8 9.29,60.09l-257.96 -334.58c13.82,0.52 27.37,2.13 40.56,4.76zm406.42 526.75l406.52 526.89 -37.45 0 -425.24 -551.52c17.67,9.97 36.48,18.29 56.17,24.63z"/>
   <path class="fil0" d="M12426.45 3249.45l173.12 224.37c0.49,6.45 0.73,12.97 0.73,19.55l0 0c0,12.34 0.73,24.52 2.14,36.48l-225.26 -292.16c17,2.32 33.47,6.29 49.26,11.76zm406.02 526.24l399.84 518.23 -40.75 0 -411.5 -533.72c16.8,6.68 34.33,11.92 52.42,15.49z"/>
   <path class="fil0" d="M12459.94 3263.77l134.36 174.27c3.91,17.83 6,36.34 6,55.33l0 0 0.01 0.87 -193.44 -250.72c18.58,4.81 36.36,11.65 53.08,20.25zm397.64 515.73l396.62 514.42 -36.9 0 -403.09 -522.44c14.09,3.73 28.58,6.44 43.37,8.02z"/>
   <path class="fil0" d="M12513.55 3300.58l58.98 76.44c12.63,24.89 21.33,52.1 25.31,80.79l-156.17 -202.56c26.48,11.11 50.73,26.51 71.88,45.33zm370.75 480.53l395.65 512.81 -37.45 0 -397.93 -516.11c13,1.99 26.27,3.12 39.73,3.3z"/>
   <path class="fil0" d="M12909.78 3781.14l395.37 512.78 -35.9 0 -395.65 -513.15c4.81,0.24 9.65,0.36 14.51,0.36l21.68 0zm-324.38 -374.15l-97.57 -126.54c44.57,30.59 79.12,74.77 97.57,126.54z"/>
   <polygon class="fil0" points="12933.21,3781.14 13328.57,4293.92 13291.68,4293.92 12896.04,3781.14 "/>
   <polygon class="fil0" points="12958.71,3781.14 13354.34,4293.92 13316.86,4293.92 12921.5,3781.14 "/>
   <polygon class="fil0" points="12984.15,3781.14 13379.52,4293.92 13342.64,4293.92 12947.01,3781.14 "/>
   <polygon class="fil0" points="13006.34,3781.14 13401.98,4293.92 13364.48,4293.92 12969.13,3781.14 "/>
   <polygon class="fil0" points="13033.09,3781.14 13428.73,4293.92 13391.23,4293.92 12995.87,3781.14 "/>
   <polygon class="fil0" points="13058.52,3781.14 13453.89,4293.92 13417.03,4293.92 13021.39,3781.14 "/>
   <polygon class="fil0" points="13084.05,3781.14 13479.68,4293.92 13442.17,4293.92 13046.8,3781.14 "/>
   <polygon class="fil0" points="13106.15,3781.14 13501.51,4293.92 13465.6,4293.92 13070.24,3781.14 "/>
   <polygon class="fil0" points="13132.88,3781.14 13528.25,4293.92 13491.42,4293.92 13095.78,3781.14 "/>
   <polygon class="fil0" points="13158.44,3781.14 13554.08,4293.92 13516.54,4293.92 13121.17,3781.14 "/>
   <polygon class="fil0" points="13180.51,3781.14 13575.88,4293.92 13539.05,4293.92 13143.42,3781.14 "/>
   <polygon class="fil0" points="13207.26,3781.14 13602.62,4293.92 13565.81,4293.92 13170.17,3781.14 "/>
   <polygon class="fil0" points="13232.82,3781.14 13628.46,4293.92 13590.91,4293.92 13195.54,3781.14 "/>
   <polygon class="fil0" points="13254.89,3781.14 13650.25,4293.92 13613.45,4293.92 13217.8,3781.14 "/>
   <polygon class="fil0" points="13280.46,3781.14 13676.1,4293.92 13638.54,4293.92 13243.17,3781.14 "/>
   <polygon class="fil0" points="13305.81,3781.14 13701.18,4293.92 13665.28,4293.92 13269.91,3781.14 "/>
   <polygon class="fil0" points="13332.55,3781.14 13727.92,4293.92 13691.14,4293.92 13295.5,3781.14 "/>
   <polygon class="fil0" points="13354.85,3781.14 13750.49,4293.92 13712.91,4293.92 13317.54,3781.14 "/>
   <polygon class="fil0" points="13380.18,3781.14 13775.55,4293.92 13738.78,4293.92 13343.14,3781.14 "/>
   <polygon class="fil0" points="13406.93,3781.14 13802.3,4293.92 13765.53,4293.92 13369.88,3781.14 "/>
   <polygon class="fil0" points="13429.24,3781.14 13824.87,4293.92 13787.26,4293.92 13391.89,3781.14 "/>
   <polygon class="fil0" points="13454.55,3781.14 13849.92,4293.92 13813.17,4293.92 13417.53,3781.14 "/>
   <polygon class="fil0" points="13480.18,3781.14 13875.82,4293.92 13838.23,4293.92 13442.86,3781.14 "/>
   <polygon class="fil0" points="13505.5,3781.14 13900.86,4293.92 13861.64,4293.92 13466.28,3781.14 "/>
   <polygon class="fil0" points="13528.92,3781.14 13924.29,4293.92 13887.55,4293.92 13491.91,3781.14 "/>
   <polygon class="fil0" points="13554.58,3781.14 13950.22,4293.92 13912.58,4293.92 13517.21,3781.14 "/>
   <polygon class="fil0" points="13579.86,3781.14 13975.22,4293.92 13938.5,4293.92 13542.86,3781.14 "/>
   <polygon class="fil0" points="13603.3,3781.14 13998.67,4293.92 13961.95,4293.92 13566.31,3781.14 "/>
   <polygon class="fil0" points="13628.97,3781.14 14024.61,4293.92 13986.95,4293.92 13591.58,3781.14 "/>
   <polygon class="fil0" points="13654.23,3781.14 14049.6,4293.92 14012.9,4293.92 13617.25,3781.14 "/>
   <polygon class="fil0" points="13676.61,3781.14 14072.24,4293.92 14034.57,4293.92 13639.21,3781.14 "/>
   <polygon class="fil0" points="13701.86,3781.14 14097.23,4293.92 14061.31,4293.92 13665.95,3781.14 "/>
   <polygon class="fil0" points="13728.62,3781.14 14123.99,4293.92 14087.28,4293.92 13691.65,3781.14 "/>
   <polygon class="fil0" points="13754.3,3781.14 14149.94,4293.92 14108.94,4293.92 13713.57,3781.14 "/>
   <polygon class="fil0" points="13776.23,3781.14 14171.6,4293.92 14134.92,4293.92 13739.28,3781.14 "/>
   <polygon class="fil0" points="13802.97,3781.14 14198.33,4293.92 14161.67,4293.92 13766.03,3781.14 "/>
   <polygon class="fil0" points="13828.69,3781.14 14224.32,4293.92 14186.62,4293.92 13791.26,3781.14 "/>
   <polygon class="fil0" points="13850.6,3781.14 14245.97,4293.92 14209.31,4293.92 13813.67,3781.14 "/>
   <polygon class="fil0" points="13876.33,3781.14 14271.97,4293.92 14234.25,4293.92 13838.88,3781.14 "/>
   <polygon class="fil0" points="13903.08,3781.14 14298.72,4293.92 14260.99,4293.92 13865.63,3781.14 "/>
   <polygon class="fil0" points="13924.97,3781.14 14320.34,4293.92 14283.71,4293.92 13888.07,3781.14 "/>
   <polygon class="fil0" points="13950.72,3781.14 14346.35,4293.92 14308.62,4293.92 13913.25,3781.14 "/>
   <polygon class="fil0" points="13975.9,3781.14 14371.26,4293.92 14335.36,4293.92 13940,3781.14 "/>
   <polygon class="fil0" points="14002.64,3781.14 14398.01,4293.92 14361.4,4293.92 13965.76,3781.14 "/>
   <polygon class="fil0" points="14025.1,3781.14 14420.74,4293.92 14382.98,4293.92 13987.62,3781.14 "/>
   <polygon class="fil0" points="14050.28,3781.14 14445.64,4293.92 14409.04,4293.92 14013.4,3781.14 "/>
   <polygon class="fil0" points="14076.05,3781.14 14471.68,4293.92 14433.93,4293.92 14038.56,3781.14 "/>
   <polygon class="fil0" points="14099.51,3781.14 14495.14,4293.92 14457.37,4293.92 14062,3781.14 "/>
   <polygon class="fil0" points="14124.65,3781.14 14520.01,4293.92 14483.41,4293.92 14087.77,3781.14 "/>
   <polygon class="fil0" points="14150.44,3781.14 14546.08,4293.92 14508.31,4293.92 14112.95,3781.14 "/>
   <polygon class="fil0" points="14172.27,3781.14 14567.63,4293.92 14531.73,4293.92 14136.37,3781.14 "/>
   <polygon class="fil0" points="14199.01,3781.14 14594.37,4293.92 14557.82,4293.92 14162.18,3781.14 "/>
   <polygon class="fil0" points="14224.84,3781.14 14620.47,4293.92 14582.66,4293.92 14187.3,3781.14 "/>
   <polygon class="fil0" points="14249.94,3781.14 14645.31,4293.92 14608.76,4293.92 14213.12,3781.14 "/>
   <polygon class="fil0" points="14272.47,3781.14 14668.11,4293.92 14630.28,4293.92 14234.92,3781.14 "/>
   <path class="fil0" d="M14299.22 3781.14l1190.63 1543.18c-23.89,-17.84 -44.62,-39.67 -61.13,-64.46l-744.31 -965.93 -27.37 0 -395.37 -512.78 37.56 0z"/>
   <path class="fil0" d="M14324.31 3781.14l1210.7 1570.26c-33.44,-15.68 -63.05,-38.33 -86.88,-65.99l-17.26 -22.37 -2.15 -3.18 -744.31 -965.93 -1.26 0 -395.64 -512.78 36.8 0z"/>
   <path class="fil0" d="M14346.86 3781.14l1221.47 1583.15c-20.9,-6.45 -40.69,-15.5 -59,-26.76l-1200.02 -1556.39 37.55 0z"/>
   <path class="fil0" d="M14371.95 3781.14l1226.25 1590.43c-15.77,-2.85 -31.06,-7.15 -45.74,-12.75l-1216.42 -1577.68 35.9 0z"/>
   <path class="fil0" d="M14398.69 3781.14l1229.01 1594.01c-13.78,-0.86 -27.27,-2.82 -40.41,-5.79l-1225.39 -1588.22 36.79 0z"/>
   <path class="fil0" d="M14424.55 3781.14l1230.04 1594.26c-3.6,0.16 -7.22,0.25 -10.86,0.25l0 0c-10.91,0 -21.67,-0.69 -32.24,-2.03l-1227.83 -1592.48 40.89 0z"/>
   <path class="fil0" d="M14446.32 3781.14l1227.94 1592.63c-10.02,1.23 -20.2,1.89 -30.52,1.89l0 0 -3.97 -0.03 -1230.23 -1594.48 36.78 0z"/>
   <path class="fil0" d="M14472.2 3781.14l1225.64 1588.54c-11.24,2.51 -22.73,4.27 -34.43,5.2l-1228.8 -1593.74 37.6 0z"/>
   <path class="fil0" d="M14498.94 3781.14l1221.01 1582.55c-10.49,3.37 -21.23,6.07 -32.22,8.04l-1226.38 -1590.59 37.6 0z"/>
   <path class="fil0" d="M14520.68 3781.14l1215.64 1576.67c-9.3,3.71 -18.84,6.88 -28.61,9.48l-1223.79 -1586.15 36.75 0z"/>
   <path class="fil0" d="M14546.6 3781.14l1209.57 1567.72c-9.35,4.7 -19.01,8.82 -28.93,12.36l-1218.26 -1580.07 37.63 0z"/>
   <path class="fil0" d="M14571.62 3781.14l1201.53 1558.36c-8.23,4.95 -16.74,9.46 -25.53,13.46l-1211.91 -1571.82 35.91 0z"/>
   <path class="fil0" d="M14595.05 3781.14l1193.7 1548.21c-7.78,5.47 -15.87,10.54 -24.23,15.13l-1206.2 -1563.35 36.73 0z"/>
   <path class="fil0" d="M14620.97 3781.14l1184.6 1535.35c-7.8,6.5 -15.98,12.53 -24.51,18.08l-1197.72 -1553.42 37.63 0z"/>
   <path class="fil0" d="M14646.01 3781.14l1173.88 1522.5c-6.84,6.6 -14.04,12.82 -21.55,18.64l-1189.07 -1541.14 36.75 0z"/>
   <path class="fil0" d="M14672.73 3781.14l1161.94 1507.01c-6.33,7.19 -13.03,14.03 -20.1,20.49l-1178.55 -1527.5 36.71 0z"/>
   <path class="fil0" d="M14695.37 3781.14l1151.35 1492.27c-6.27,8.28 -13.02,16.15 -20.22,23.62l-1168.78 -1515.89 37.65 0z"/>
   <path class="fil0" d="M14720.36 3781.14l1137.87 1475.81c-5.35,8.33 -11.18,16.31 -17.43,23.97l-1157.15 -1499.77 36.7 0z"/>
   <path class="fil0" d="M14746.31 3781.14l1123.4 1456.04c-5.06,9.66 -10.73,18.96 -16.94,27.88l-1144.13 -1483.92 37.67 0z"/>
   <path class="fil0" d="M14767.98 3781.14l1109.74 1439.31c-4.19,9.65 -8.97,19.01 -14.28,28.02l-1131.34 -1467.32 35.89 0z"/>
   <path class="fil0" d="M14794.73 3781.14l1091.77 1416.02c-3.39,10.56 -7.48,20.84 -12.18,30.77l-1116.28 -1446.79 36.69 0z"/>
   <path class="fil0" d="M14821.24 3781.84l1072.06 1389.5c-2.57,12.43 -6.07,24.56 -10.43,36.31l-1099.87 -1426.52 27.07 0 0 0c3.72,0.16 7.44,0.4 11.16,0.71z"/>
   <path class="fil0" d="M14845.19 3784.81l1051.69 1364.03c-1.43,12.73 -3.85,25.2 -7.14,37.33l-1084.06 -1405.04 4.4 0 0 0c11.73,0.51 23.47,1.74 35.11,3.68z"/>
   <path class="fil0" d="M14877.61 3792.19l1020.86 1324.03 0 4.72 0 0c0,12.92 -1.01,25.64 -2.94,38.08l-1061.52 -1375.84c14.7,1.86 29.3,4.86 43.6,9.01z"/>
   <path class="fil0" d="M14913.95 3805.58l984.52 1276.03 0 39.32 0 0c0,3.41 -0.08,6.81 -0.23,10.18l-1035.29 -1342.76c17.45,4.06 34.56,9.79 51,17.23z"/>
   <path class="fil0" d="M14959.01 3831.69l939.46 1218.47 0 46.63 -1001.68 -1298.27c21.93,8.16 42.92,19.19 62.21,33.17z"/>
   <path class="fil0" d="M15385.72 4355.29l512.75 664.58 0 49.77 -968.51 -1256.14c31.14,16.72 59.3,40.02 81.94,70.19l373.81 483 0 -11.4z"/>
   <path class="fil0" d="M15385.72 4323.35l512.75 665.03 0 46.54 -901.81 -1169.64c5.32,5.83 10.41,11.95 15.25,18.41l373.81 483 0 -43.33z"/>
   <polygon class="fil0" points="15385.72,4288.66 15898.47,4953.7 15898.47,5000.37 15385.72,4335.8 "/>
   <polygon class="fil0" points="15385.72,4258.89 15898.47,4923.46 15898.47,4973.18 15385.72,4308.16 "/>
   <polygon class="fil0" points="15385.72,4226.9 15898.47,4891.93 15898.47,4938.63 15385.72,4274.06 "/>
   <polygon class="fil0" points="15385.72,4192.21 15898.47,4857.24 15898.47,4903.96 15385.72,4239.38 "/>
   <polygon class="fil0" points="15385.72,4158.19 15898.47,4822.76 15898.47,4876.73 15385.72,4211.7 "/>
   <polygon class="fil0" points="15385.72,4130.43 15898.47,4795.46 15898.47,4842.2 15385.72,4177.63 "/>
   <polygon class="fil0" points="15385.72,4096.44 15898.47,4761.01 15898.47,4810.66 15385.72,4145.63 "/>
   <polygon class="fil0" points="15385.72,4064.37 15898.47,4729.41 15898.47,4775.98 15385.72,4110.95 "/>
   <polygon class="fil0" points="15385.74,4034.01 15898.47,4699.01 15898.47,4745.8 15385.72,4081.22 15385.72,4035.88 15385.72,4035.88 "/>
   <path class="fil0" d="M15387.86 4002.79l510.62 661.8 0 49.62 -512.75 -665.03 0 -13.3 0 0c0,-11.17 0.73,-22.21 2.13,-33.08z"/>
   <path class="fil0" d="M15392.55 3976.79l505.92 656.17 0 46.82 -511.99 -663.59c1.02,-13.4 3.06,-26.56 6.07,-39.39z"/>
   <path class="fil0" d="M15398.84 3954.54l499.63 648.03 0 46.81 -508.66 -659.27c2.18,-12.13 5.2,-24.02 9.03,-35.57z"/>
   <path class="fil0" d="M12658.85 369.32l62.96 81.6c-26.11,-22.47 -47.66,-50.18 -62.96,-81.6zm2748.7 3562.58l490.92 636.27 0 49.57 -502.96 -652.34c3.26,-11.49 7.29,-22.68 12.05,-33.51z"/>
   <path class="fil0" d="M12638.26 308.06l137.75 178.65c-69.73,-34.26 -122.03,-99.49 -137.75,-178.65zm2778.93 3604.22l481.28 624.22 0 46.85 -495 -641.57c3.96,-10.14 8.54,-20 13.72,-29.5z"/>
   <path class="fil0" d="M12633.67 270.65l177.65 230.25c-22.09,-7 -42.94,-16.95 -62.04,-29.39l-103.26 -133.93c-6.95,-21.17 -11.21,-43.6 -12.34,-66.93zm2794.99 3622.59l469.81 608.92 0 53.82 -487.27 -631.98c5.12,-10.66 10.96,-20.94 17.46,-30.76z"/>
   <path class="fil0" d="M12633.96 240.63l206.47 267.62c-16.09,-3.06 -31.67,-7.65 -46.58,-13.6l-158.63 -205.75c-1.21,-10.1 -1.86,-20.4 -1.86,-30.86l0 0c0,-5.85 0.21,-11.65 0.6,-17.41zm2806.01 3636.87l458.51 594.27 0 49.53 -476.29 -617.75c5.4,-9.04 11.33,-17.75 17.78,-26.05z"/>
   <path class="fil0" d="M12637.69 210.86l232.26 301.23c-14.91,-1.06 -29.48,-3.4 -43.62,-6.94l-192.94 -250.07c0.17,-15.08 1.64,-29.85 4.3,-44.22zm2815.2 3651.28l445.58 577.9 0 46.89 -464.26 -601.72c5.78,-8.04 12.02,-15.74 18.69,-23.06z"/>
   <path class="fil0" d="M12643.36 186.78l251.5 325.97 -6.77 0 0 0c-10.41,0 -20.69,-0.65 -30.81,-1.87l-221.61 -287.43c1.69,-12.53 4.26,-24.76 7.68,-36.66zm2824.24 3660.49l430.87 558.45 0 49.51 -451.82 -586.01c6.54,-7.73 13.53,-15.06 20.95,-21.96z"/>
   <path class="fil0" d="M12650.46 165.63l267.63 347.12 -29.99 0 0 0c-2,0 -3.99,-0.03 -5.98,-0.08l-241.92 -313.77c2.68,-11.41 6.12,-22.51 10.26,-33.28zm2829.99 3670.46l418.02 542.17 0 46.57 -439.12 -569.53c6.66,-6.78 13.7,-13.2 21.1,-19.22z"/>
   <path class="fil0" d="M12660.14 143.53l284.68 369.22 -38.25 0 -259.85 -336.79c3.75,-11.17 8.24,-22 13.41,-32.44zm2837.27 3679.89l401.06 520.17 0 46.93 -423.96 -549.48c7.27,-6.29 14.91,-12.18 22.89,-17.62z"/>
   <path class="fil0" d="M12670.19 125.14l299.06 387.61 -36.13 0 -277.41 -359.79c4.29,-9.59 9.12,-18.89 14.48,-27.82zm2844.9 3687.29l383.38 496.89 0 49.47 -408.63 -529.98c8.05,-5.94 16.48,-11.41 25.25,-16.37z"/>
   <path class="fil0" d="M12680.92 108.69l311.53 404.06 -38.23 0 -290.4 -376.38c5.14,-9.61 10.85,-18.85 17.1,-27.69zm2849.49 3695.75l368.06 477.38 0 46.95 -393.65 -510.2c8.2,-5.18 16.74,-9.9 25.59,-14.13z"/>
   <path class="fil0" d="M12692.99 92.95l323.89 419.8 -36.15 0 -305.3 -395.97c5.41,-8.28 11.27,-16.24 17.55,-23.82zm2857.09 3703.08l348.39 451.54 0 49.42 -376.51 -488.33c9.04,-4.75 18.42,-8.98 28.12,-12.63z"/>
   <path class="fil0" d="M12707.4 76.95l336.24 435.8 -36.16 0 -319.19 -413.98c5.96,-7.63 12.35,-14.91 19.11,-21.82zm2864.07 3712.12l335.38 434.69 -8.38 3.98 0 34.57 -356.89 -462.88c9.65,-4.04 19.61,-7.52 29.89,-10.36z"/>
   <path class="fil0" d="M12722.88 62.37l347.26 450.38 -38.22 0 -330.97 -428.97c6.89,-7.57 14.21,-14.72 21.93,-21.42zm2869.64 3721.86l332.12 430.75c-8.65,4.4 -17.37,8.66 -26.16,12.77l0 0.33 -336.52 -436.15c9.9,-3.17 20.1,-5.74 30.56,-7.69z"/>
   <path class="fil0" d="M12735.72 51.91l355.56 460.84 -36.17 0 -341.06 -442.35c6.88,-6.55 14.11,-12.72 21.67,-18.48zm2877.35 3729.32l328.02 425.16c-9.03,4.82 -18.14,9.47 -27.32,13.99l-334.17 -433.41c10.86,-2.62 22.03,-4.56 33.46,-5.74z"/>
   <path class="fil0" d="M12753.09 39.77l364.68 472.98 -35.91 0 -351.85 -456.34c7.38,-5.96 15.08,-11.51 23.08,-16.64zm2881.74 3737.57l323.52 419.6c-8.37,4.7 -16.8,9.27 -25.33,13.71l-330.12 -428.16c3.67,-0.52 7.36,-0.99 11.08,-1.36l0 0c6.99,-1 13.94,-2.27 20.85,-3.79z"/>
   <path class="fil0" d="M12771.54 29.03l372.96 483.72 -38.2 0 -360.96 -467.83c8.39,-5.81 17.14,-11.12 26.19,-15.89zm2885.54 3742.5l319.77 414.73c-8.3,4.93 -16.68,9.72 -25.14,14.38l-325.27 -421.58c10.33,-1.96 20.56,-4.48 30.65,-7.53z"/>
   <path class="fil0" d="M12786.75 21.64l378.92 491.11 -36.18 0 -368.44 -477.86c8.3,-4.88 16.87,-9.32 25.7,-13.25zm2888.48 3743.77l317.34 411.3c-8.6,5.35 -17.29,10.55 -26.07,15.61l-321.76 -417.33c10.33,-2.65 20.51,-5.85 30.5,-9.58z"/>
   <path class="fil0" d="M12807.24 13.56l384.89 499.19 -38.18 0 -375.82 -487.09c9.41,-4.62 19.13,-8.67 29.11,-12.11zm2886.8 3744.12l314.99 408.55c-8.04,5.25 -16.17,10.36 -24.4,15.35l-318.58 -412.92c9.5,-3.21 18.85,-6.88 27.99,-10.98z"/>
   <path class="fil0" d="M12826.93 7.68l389.68 505.06 -36.21 0 -382.3 -495.84c9.36,-3.64 18.99,-6.72 28.82,-9.22zm2886.11 3740.69l313.39 406.18c-8.31,5.71 -16.72,11.28 -25.23,16.71l-315.97 -409.81c9.48,-3.91 18.77,-8.28 27.81,-13.08z"/>
   <path class="fil0" d="M12847.1 3.45l392.95 509.3 -36.2 0 -387.22 -502.21c9.94,-2.98 20.1,-5.36 30.47,-7.09zm2882.24 3735.67l312.28 404.76c-8.17,5.88 -16.45,11.62 -24.83,17.23l-314.15 -407.45c9.14,-4.44 18.05,-9.29 26.7,-14.53z"/>
   <path class="fil0" d="M12871.63 0.59l394.88 512.16 -38.16 0 -391.47 -507.38c11.35,-2.4 22.95,-3.99 34.76,-4.77zm2874.2 3727.8l311.46 403.95c-7.63,5.76 -15.37,11.39 -23.21,16.9l-312.78 -405.4c8.43,-4.8 16.61,-9.96 24.53,-15.45z"/>
   <path class="fil0" d="M12895.41 0.03l395.59 512.72 -36.22 0 -394.13 -511.19c9.03,-1 18.19,-1.54 27.46,-1.54l7.31 0zm2867.06 3716l311.33 403.52c-7.87,6.25 -15.87,12.37 -23.97,18.35l-311.73 -404.31c8.43,-5.49 16.57,-11.36 24.37,-17.56z"/>
   <path class="fil0" d="M12922.11 0.03l395.32 512.72 -35.91 0 -395.3 -512.7 1.87 -0.03 34.01 0zm2855.34 3703.32l311.45 403.95c-7.28,6.06 -14.68,12 -22.17,17.82l-311.25 -403.68c7.63,-5.73 14.97,-11.77 21.98,-18.09z"/>
   <path class="fil0" d="M12945.55 0.03l395.32 512.72 -38.15 0 -395.59 -512.72 38.42 0zm2845.37 3690.4l312.13 404.82c-7.21,6.28 -14.54,12.44 -21.98,18.48l-311.39 -403.59c7.43,-6.28 14.53,-12.86 21.24,-19.71z"/>
   <path class="fil0" d="M12969.79 0.03l395.59 512.72 -36.23 0 -395.32 -512.72 35.95 0zm2834.74 3674.09l314.14 407.16c-7.42,6.81 -14.98,13.49 -22.67,20.03l-311.73 -404.3c4.01,-3.84 7.9,-7.79 11.65,-11.81l0 0c2.95,-3.63 5.81,-7.33 8.6,-11.08z"/>
   <path class="fil0" d="M12996.48 0.03l395.32 512.72 -38.12 0 -395.59 -512.72 38.4 0zm2819.78 3657.22l316.64 410.66c-6.92,6.66 -13.95,13.19 -21.11,19.6l-313.09 -405.79c6.23,-7.89 12.1,-16.04 17.56,-24.47z"/>
   <path class="fil0" d="M13017.44 0.03l395.59 512.72 -35.92 0 -395.59 -512.72 35.92 0zm2808.9 3640.61l319.69 414.35c-6.71,6.77 -13.56,13.4 -20.52,19.94l-315.31 -408.67c5.78,-8.28 11.17,-16.82 16.14,-25.62z"/>
   <path class="fil0" d="M13044.19 0.03l395.59 512.72 -36.25 0 -395.32 -512.72 35.99 0zm2792.87 3619.84l323.82 419.71c-6.95,7.4 -14.05,14.66 -21.29,21.81l-318.07 -412.52c5.67,-9.37 10.87,-19.04 15.54,-28.99z"/>
   <path class="fil0" d="M13070.85 0.03l395.32 512.72 -38.11 0 -395.59 -512.72 38.39 0zm2775 3599.14l328.34 425.85c-6.46,7.24 -13.05,14.37 -19.79,21.37l-321.91 -417.22c4.97,-9.73 9.43,-19.73 13.35,-30z"/>
   <path class="fil0" d="M13095.13 0.03l395.59 512.72 -39.56 0 -395.32 -512.72 39.3 0zm2758.64 3575.48l334.41 433.43c-3.9,4.61 -7.85,9.18 -11.84,13.7l0 0c-3.37,3.81 -6.79,7.59 -10.24,11.34l-325.43 -422.07c5.12,-11.78 9.51,-23.92 13.11,-36.39z"/>
   <path class="fil0" d="M13118.47 0.03l395.32 512.72 -35.9 0 -395.32 -512.72 35.9 0zm2740.55 3554.43l340.15 441.18c-6.11,7.54 -12.36,14.97 -18.73,22.29l-330.86 -429.12c3.8,-11.18 6.96,-22.64 9.43,-34.35z"/>
   <path class="fil0" d="M13145.22 0.03l395.32 512.72 -38.09 0 -395.59 -512.72 38.36 0zm2718.39 3525.71l349.07 452.75c-5.99,7.82 -12.12,15.53 -18.4,23.13l-337.49 -437.42c3.09,-12.53 5.38,-25.37 6.82,-38.46z"/>
   <path class="fil0" d="M13169.52 0.03l395.59 512.72 -36.28 0 -395.32 -512.72 36 0zm2695.86 3494.09l360.29 466.98c-6.12,8.44 -12.41,16.76 -18.85,24.96l-344.91 -447.36c2.24,-14.53 3.43,-29.42 3.48,-44.58z"/>
   <path class="fil0" d="M13192.86 0.03l395.32 512.72 -38.09 0 -395.59 -512.72 38.36 0zm2672.52 3466.22l370.46 480.49c-5.69,8.21 -11.53,16.3 -17.51,24.29l-353.58 -458.28c0.42,-6.4 0.63,-12.86 0.63,-19.39l0 -27.12z"/>
   <path class="fil0" d="M13219.59 0.03l395.32 512.72 -38.07 0 -395.59 -512.72 38.35 0zm2645.79 3431.54l382.92 496.65c-5.51,8.44 -11.17,16.78 -16.98,25l-365.94 -474.3 0 -47.34z"/>
   <path class="fil0" d="M13243.91 0.03l395.59 512.72 -36.29 0 -395.32 -512.72 36.03 0zm2621.47 3397.68l394.83 511.74c-5.59,9.1 -11.37,18.08 -17.31,26.94l-377.52 -489.63 0 -49.05z"/>
   <path class="fil0" d="M13267.22 0.03l395.32 512.72 -38.06 0 -395.59 -512.72 38.34 0zm2598.16 3369.78l404.11 524.13c-5.18,8.86 -10.53,17.61 -16.03,26.26l-388.09 -503.01 0 -47.38z"/>
   <path class="fil0" d="M13291.56 0.03l395.59 512.72 -36.32 0 -395.32 -512.72 36.05 0zm2573.82 3335.93l415.27 538.23c-5.22,9.55 -10.64,19 -16.24,28.32l-399.04 -517.54 0 -49.01z"/>
   <path class="fil0" d="M13318.15 0.03l395.32 512.72 -35.91 0 -395.32 -512.72 35.91 0zm2547.22 3303.71l425.28 551.59c-4.74,9.25 -9.66,18.39 -14.75,27.43l-410.53 -532.45 0 -46.57z"/>
   <path class="fil0" d="M13344.89 0.03l395.32 512.72 -41.34 0 -395.59 -512.72 41.61 0zm2520.49 3269.04l435.72 565.13c-4.99,10.47 -10.21,20.82 -15.63,31.04l-420.09 -544.48 0 -51.69z"/>
   <path class="fil0" d="M13365.94 0.03l395.59 512.72 -36.34 0 -395.32 -512.72 36.07 0zm2499.43 3239.51l444.35 575.92c-4.6,10.33 -9.41,20.56 -14.43,30.67l-429.92 -557.6 0 -48.99z"/>
   <path class="fil0" d="M13392.52 0.03l395.32 512.72 -38.03 0 -395.59 -512.72 38.31 0zm2472.85 3207.26l453.13 587.69c-4.17,10.11 -8.55,20.13 -13.11,30.04l-440.02 -570.3 0 -47.43z"/>
   <path class="fil0" d="M13419.27 0.03l395.32 512.72 -38.02 0 -395.59 -512.72 38.29 0zm2446.11 3172.57l462.18 599.43c-3.92,10.42 -8.06,20.74 -12.41,30.96l-449.77 -582.94 0 -47.44z"/>
   <path class="fil0" d="M13440.34 0.03l395.59 512.72 -36.36 0 -395.32 -512.72 36.1 0zm2425.04 3143.1l469.51 608.53c-3.87,11.23 -8.01,22.35 -12.36,33.35l-457.15 -592.92 0 -48.96z"/>
   <path class="fil0" d="M13466.89 0.03l395.32 512.72 -38.02 0 -395.59 -512.72 38.29 0zm2398.48 3110.8l476.86 618.48c-3.44,11.02 -7.13,21.94 -11.03,32.76l-465.84 -603.76 0 -47.48z"/>
   <path class="fil0" d="M13491.28 0.03l395.59 512.72 -36.37 0 -395.32 -512.72 36.1 0zm2374.1 3077.05l484.14 627.49c-3.31,11.94 -6.88,23.75 -10.72,35.46l-473.42 -614.02 0 -48.94z"/>
   <path class="fil0" d="M13514.52 0.03l395.32 512.72 -35.91 0 -395.32 -512.72 35.91 0zm2350.86 3049.02l489.54 634.92c-2.87,11.57 -6,23.05 -9.37,34.43l-480.17 -622.78 0 -46.57z"/>
   <path class="fil0" d="M13541.25 0.03l395.32 512.72 -37.99 0 -395.59 -512.72 38.26 0zm2324.12 3014.35l495.68 642.88c-2.56,12.11 -5.4,24.13 -8.5,36.05l-487.17 -631.42 0 -47.51z"/>
   <path class="fil0" d="M13565.66 0.03l395.59 512.72 -36.38 0 -395.32 -512.72 36.1 0zm2299.72 2980.66l500.94 649.27c-2.29,13.15 -4.91,26.18 -7.85,39.12l-493.09 -639.51 0 -48.88z"/>
   <path class="fil0" d="M13592.2 0.03l395.32 512.72 -37.98 0 -395.59 -512.72 38.26 0zm2273.18 2948.28l505.12 655.13c-1.82,13.03 -3.96,25.96 -6.41,38.79l-498.7 -646.36 0 -47.55z"/>
   <path class="fil0" d="M13615.63 0.03l395.32 512.72 -37.98 0 -395.59 -512.72 38.25 0zm2249.74 2917.88l508.35 659.31c-1.43,13.51 -3.22,26.91 -5.32,40.22l-503.02 -651.96 0 -47.57z"/>
   <path class="fil0" d="M13640.06 0.03l395.59 512.72 -36.41 0 -395.32 -512.72 36.14 0zm2225.31 2884.23l510.98 662.28c-0.99,14.74 -2.37,29.36 -4.16,43.89l-506.82 -657.33 0 -48.84z"/>
   <path class="fil0" d="M13666.57 0.03l395.32 512.72 -37.95 0 -395.59 -512.72 38.23 0zm2198.81 2851.83l512.41 664.59c-0.42,14.73 -1.26,29.38 -2.48,43.91l-509.93 -660.92 0 -47.58z"/>
   <path class="fil0" d="M13687.7 0.03l395.59 512.72 -36.42 0 -395.32 -512.72 36.16 0zm2177.68 2822.49l512.76 664.58 0 6.27 0 0c0,13.94 -0.38,27.8 -1.1,41.58l-511.66 -663.61 0 -48.82z"/>
   <path class="fil0" d="M13714.45 0.03l395.59 512.72 -36.43 0 -395.32 -512.72 36.16 0zm2150.93 2787.82l512.76 664.59 0 40.93 0 0 -0.05 8.26 -512.71 -664.97 0 -48.81z"/>
   <path class="fil0" d="M13740.94 0.03l395.32 512.72 -37.93 0 -395.59 -512.72 38.21 0zm2124.44 2755.37l512.76 665.04 0 47.16 -512.76 -664.58 0 -47.63z"/>
   <path class="fil0" d="M13765.39 0.03l395.59 512.72 -39.74 0 -395.32 -512.72 39.47 0zm2099.99 2721.79l512.76 664.59 0 53.5 -512.76 -665.04 0 -53.05z"/>
   <path class="fil0" d="M13788.57 0.03l395.32 512.72 -35.91 0 -395.32 -512.72 35.91 0zm2076.81 2693.59l512.76 665.04 0 46.57 -512.76 -665.04 0 -46.57z"/>
   <path class="fil0" d="M13815.3 0.03l395.32 512.72 -37.92 0 -395.59 -512.72 38.19 0zm2050.08 2658.91l512.76 665.04 0 47.21 -512.76 -664.58 0 -47.67z"/>
   <path class="fil0" d="M13839.78 0.03l395.59 512.72 -36.45 0 -395.32 -512.72 36.18 0zm2025.6 2625.38l512.76 664.58 0 49.17 -512.76 -665.04 0 -48.72z"/>
   <path class="fil0" d="M13862.94 0.03l395.32 512.72 -37.91 0 -395.59 -512.72 38.19 0zm2002.44 2597.14l512.76 665.04 0 47.25 -512.76 -664.58 0 -47.7z"/>
   <path class="fil0" d="M13887.42 0.03l395.59 512.72 -36.47 0 -395.32 -512.72 36.21 0zm1977.95 2563.63l512.76 664.58 0 49.16 -512.76 -665.04 0 -48.7z"/>
   <path class="fil0" d="M13914.17 0.03l395.59 512.72 -36.48 0 -395.32 -512.72 36.2 0zm1951.21 2528.97l512.76 664.58 0 49.11 -512.76 -665.04 0 -48.66z"/>
   <path class="fil0" d="M13937.3 0.03l395.32 512.72 -37.89 0 -395.59 -512.72 38.16 0zm1928.07 2500.68l512.76 665.04 0 47.27 -512.76 -664.58 0 -47.74z"/>
   <path class="fil0" d="M13961.81 0.03l395.59 512.72 -36.49 0 -395.32 -512.72 36.21 0zm1903.57 2467.21l512.76 664.58 0 49.12 -512.76 -665.04 0 -48.67z"/>
   <path class="fil0" d="M13988.25 0.03l395.32 512.72 -35.92 0 -395.32 -512.72 35.92 0zm1877.13 2434.61l512.76 665.04 0 46.58 -512.76 -665.04 0 -46.58z"/>
   <path class="fil0" d="M14014.98 0.03l395.32 512.72 -41.18 0 -395.59 -512.72 41.45 0zm1850.4 2399.93l512.76 665.04 0 51.62 -512.76 -664.58 0 -52.07z"/>
   <path class="fil0" d="M14036.19 0.03l395.59 512.72 -36.51 0 -395.32 -512.72 36.23 0zm1829.19 2370.81l512.76 664.58 0 49.06 -512.76 -665.04 0 -48.61z"/>
   <path class="fil0" d="M14062.61 0.03l395.32 512.72 -37.85 0 -395.59 -512.72 38.13 0zm1802.77 2338.16l512.76 665.04 0 47.36 -512.76 -664.58 0 -47.81z"/>
   <path class="fil0" d="M14087.14 0.03l395.59 512.72 -36.52 0 -395.32 -512.72 36.25 0zm1778.24 2304.77l512.76 664.58 0 49.05 -512.76 -665.04 0 -48.59z"/>
   <path class="fil0" d="M14110.58 0.03l395.59 512.72 -36.53 0 -395.32 -512.72 36.26 0zm1754.79 2274.39l512.76 664.58 0 49.04 -512.76 -665.04 0 -48.58z"/>
   <path class="fil0" d="M14136.98 0.03l395.32 512.72 -37.84 0 -395.59 -512.72 38.11 0zm1728.4 2241.71l512.76 665.04 0 47.4 -512.76 -664.58 0 -47.86z"/>
   <path class="fil0" d="M14161.54 0.03l395.59 512.72 -36.54 0 -395.32 -512.72 36.27 0zm1703.84 2208.35l512.76 664.58 0 49 -512.76 -665.04 0 -48.55z"/>
   <path class="fil0" d="M14184.61 0.03l395.32 512.72 -35.91 0 -395.32 -512.72 35.91 0zm1680.77 2179.93l512.76 665.04 0 46.58 -512.76 -665.04 0 -46.58z"/>
   <path class="fil0" d="M14211.35 0.03l395.32 512.72 -37.83 0 -395.59 -512.72 38.1 0zm1654.03 2145.25l512.76 665.04 0 47.44 -512.76 -664.58 0 -47.9z"/>
   <path class="fil0" d="M14235.93 0.03l395.59 512.72 -36.56 0 -395.32 -512.72 36.29 0zm1629.45 2111.93l512.76 664.58 0 48.97 -512.76 -665.04 0 -48.51z"/>
   <path class="fil0" d="M14262.29 0.03l395.32 512.72 -37.81 0 -395.59 -512.72 38.09 0zm1603.09 2079.18l512.76 665.04 0 47.47 -512.76 -664.58 0 -47.93z"/>
   <path class="fil0" d="M14283.56 0.03l395.59 512.72 -36.56 0 -395.32 -512.72 36.29 0zm1581.82 2050.19l512.76 664.58 0 48.93 -512.76 -665.04 0 -48.47z"/>
   <path class="fil0" d="M14310.31 0.03l395.59 512.72 -36.57 0 -395.32 -512.72 36.31 0zm1555.07 2015.53l512.76 664.59 0 48.91 -512.76 -665.04 0 -48.46z"/>
   <path class="fil0" d="M14336.65 0.03l395.32 512.72 -37.78 0 -395.59 -512.72 38.05 0zm1528.73 1982.74l512.76 665.04 0 47.5 -512.76 -664.58 0 -47.96z"/>
   <path class="fil0" d="M14357.95 0.03l395.59 512.72 -36.59 0 -395.32 -512.72 36.32 0zm1507.42 1953.78l512.76 664.58 0 48.9 -512.76 -665.04 0 -48.45z"/>
   <path class="fil0" d="M14384.29 0.03l395.32 512.72 -35.92 0 -395.32 -512.72 35.92 0zm1481.09 1920.95l512.76 665.04 0 46.58 -512.76 -665.04 0 -46.58z"/>
   <path class="fil0" d="M14411.02 0.03l395.32 512.72 -37.78 0 -395.59 -512.72 38.05 0zm1454.36 1886.27l512.76 665.04 0 47.55 -512.76 -664.58 0 -48.01z"/>
   <path class="fil0" d="M14432.34 0.03l395.59 512.72 -36.6 0 -395.32 -512.72 36.33 0zm1433.04 1857.36l512.76 664.58 0 48.84 -512.76 -665.04 0 -48.39z"/>
   <path class="fil0" d="M14458.65 0.03l395.32 512.72 -37.77 0 -395.59 -512.72 38.03 0zm1406.73 1824.5l512.76 665.04 0 47.59 -512.76 -664.58 0 -48.05z"/>
   <path class="fil0" d="M14485.39 0.03l395.32 512.72 -37.75 0 -395.59 -512.72 38.02 0zm1379.99 1789.82l512.76 665.04 0 47.59 -512.76 -664.58 0 -48.05z"/>
   <path class="fil0" d="M14510.04 0.03l395.59 512.72 -36.64 0 -395.32 -512.72 36.37 0zm1355.34 1756.65l512.76 664.58 0 48.83 -512.76 -665.04 0 -48.37z"/>
   <path class="fil0" d="M14533.02 0.03l395.32 512.72 -37.72 0 -395.59 -512.72 38 0zm1332.36 1728.05l512.76 665.04 0 47.6 -512.76 -664.58 0 -48.07z"/>
   <path class="fil0" d="M14557.68 0.03l395.59 512.72 -36.64 0 -395.32 -512.72 36.37 0zm1307.7 1694.92l512.76 664.58 0 48.78 -512.76 -665.04 0 -48.32z"/>
   <path class="fil0" d="M14583.96 0.03l395.32 512.72 -35.91 0 -395.32 -512.72 35.91 0zm1281.41 1661.98l512.76 665.04 0 46.57 -512.76 -665.04 0 -46.57z"/>
   <path class="fil0" d="M14607.39 0.03l395.32 512.72 -37.72 0 -395.59 -512.72 37.99 0zm1257.99 1631.59l512.76 665.04 0 47.65 -512.76 -664.58 0 -48.11z"/>
   <path class="fil0" d="M14632.06 0.03l395.59 512.72 -36.66 0 -395.32 -512.72 36.38 0zm1233.31 1598.5l512.76 664.58 0 48.74 -512.76 -665.04 0 -48.29z"/>
   <path class="fil0" d="M14658.32 0.03l395.32 512.72 -37.71 0 -395.59 -512.72 37.98 0zm1207.05 1565.52l512.76 665.04 0 47.7 -512.76 -664.58 0 -48.15z"/>
   <path class="fil0" d="M14685.07 0.03l395.32 512.72 -41.01 0 -395.59 -512.72 41.27 0zm1180.31 1530.84l512.76 665.04 0 51.98 -512.76 -664.58 0 -52.45z"/>
   <path class="fil0" d="M14706.45 0.03l395.59 512.72 -36.68 0 -395.32 -512.72 36.4 0zm1158.93 1502.09l512.76 664.58 0 48.69 -512.76 -665.04 0 -48.24z"/>
   <path class="fil0" d="M14732.69 0.03l395.32 512.72 -37.69 0 -395.59 -512.72 37.96 0zm1132.68 1469.08l512.76 665.03 0 47.74 -512.76 -664.58 0 -48.18z"/>
   <path class="fil0" d="M14757.41 0.03l395.59 512.72 -36.7 0 -395.32 -512.72 36.43 0zm1107.97 1436.04l512.76 664.58 0 48.68 -512.76 -665.04 0 -48.23z"/>
   <path class="fil0" d="M14780.33 0.03l395.32 512.72 -35.9 0 -395.32 -512.72 35.91 0zm1085.05 1407.29l512.76 665.04 0 46.57 -512.76 -665.04 0 -46.57z"/>
   <path class="fil0" d="M14807.05 0.03l395.32 512.72 -37.67 0 -395.59 -512.72 37.94 0zm1058.32 1372.62l512.76 665.04 0 47.77 -512.76 -664.58 0 -48.23z"/>
   <path class="fil0" d="M14831.79 0.03l395.59 512.72 -36.71 0 -395.32 -512.72 36.43 0zm1033.59 1339.63l512.76 664.58 0 48.63 -512.76 -665.04 0 -48.18z"/>
   <path class="fil0" d="M14854.68 0.03l395.32 512.72 -37.65 0 -395.59 -512.72 37.92 0zm1010.69 1310.86l512.76 665.04 0 47.79 -512.76 -664.58 0 -48.24z"/>
   <path class="fil0" d="M14881.43 0.03l395.32 512.72 -37.66 0 -395.59 -512.72 37.93 0zm983.94 1276.16l512.76 665.04 0 47.82 -512.76 -664.58 0 -48.28z"/>
   <path class="fil0" d="M14906.18 0.03l395.59 512.72 -36.74 0 -395.32 -512.72 36.47 0zm959.19 1243.22l512.76 664.58 0 48.6 -512.76 -665.04 0 -48.14z"/>
   <path class="fil0" d="M14932.37 0.03l395.32 512.72 -40.94 0 -395.59 -512.72 41.22 0zm933.01 1210.11l512.76 665.04 0 52.13 -512.76 -664.58 0 -52.59z"/>
   <path class="fil0" d="M14953.82 0.03l395.59 512.72 -36.74 0 -395.32 -512.72 36.48 0zm911.56 1181.48l512.76 664.58 0 48.56 -512.76 -665.04 0 -48.11z"/>
   <path class="fil0" d="M14980 0.03l395.32 512.72 -35.91 0 -395.32 -512.72 35.92 0zm885.37 1148.32l512.76 665.04 0 46.58 -512.76 -665.03 0 -46.59z"/>
   <path class="fil0" d="M15006.74 0.03l395.32 512.72 -37.62 0 -395.59 -512.72 37.88 0zm858.64 1113.64l512.76 665.04 0 47.88 -512.76 -664.58 0 -48.34z"/>
   <path class="fil0" d="M15028.21 0.03l395.59 512.72 -36.75 0 -395.32 -512.72 36.48 0zm837.17 1085.06l512.76 664.58 0 48.51 -512.76 -665.04 0 -48.06z"/>
   <path class="fil0" d="M15054.37 0.03l395.32 512.72 -37.6 0 -395.59 -512.72 37.87 0zm811.01 1051.87l512.76 665.04 0 47.9 -512.76 -664.58 0 -48.35z"/>
   <path class="fil0" d="M15081.12 0.03l395.32 512.72 -37.61 0 -395.59 -512.72 37.88 0zm784.26 1017.17l512.76 665.04 0 47.93 -512.76 -664.58 0 -48.4z"/>
   <path class="fil0" d="M15102.59 0.03l395.59 512.72 -36.76 0 -395.32 -512.72 36.5 0zm762.79 988.64l512.76 664.59 0 48.45 -512.76 -665.03 0 -48.01z"/>
   <path class="fil0" d="M15128.74 0.03l395.32 512.72 -37.59 0 -395.59 -512.72 37.87 0zm736.64 955.42l512.76 665.04 0 47.97 -512.76 -664.58 0 -48.43z"/>
   <path class="fil0" d="M15153.54 0.03l395.59 512.72 -36.8 0 -395.32 -512.72 36.52 0zm711.83 922.6l512.76 664.58 0 48.45 -512.76 -665.03 0 -48z"/>
   <path class="fil0" d="M15180.29 0.03l395.59 512.72 -36.81 0 -395.32 -512.72 36.53 0zm685.08 887.93l512.76 664.59 0 48.44 -512.76 -665.04 0 -47.99z"/>
   <path class="fil0" d="M15203.1 0.03l395.95 513.53c-7.1,-0.54 -14.26,-0.81 -21.48,-0.81l-16.71 0 -395.59 -512.72 37.83 0zm662.27 858.96l512.76 665.04 0 47.98 -512.76 -664.58 0 -48.44z"/>
   <path class="fil0" d="M15227.93 0.03l398.91 517.03c-13.08,-2.3 -26.43,-3.71 -40,-4.15l-395.44 -512.88 36.54 0zm637.45 826.2l512.76 664.58 0 48.4 -512.76 -665.04 0 -47.94z"/>
   <path class="fil0" d="M15254.05 0.03l404.38 524.47c-13.96,-4.13 -28.33,-7.24 -43.02,-9.21l-397.26 -515.26 35.91 0zm611.14 792.63l512.95 665.29 0 46.58 -512.76 -665.04 0 -35.63 0 0c0,-3.75 -0.06,-7.48 -0.19,-11.2z"/>
   <path class="fil0" d="M15277.48 0.03l413.48 536.28c-16.08,-6.96 -32.87,-12.48 -50.22,-16.44l-401.08 -519.84 37.82 0zm584.52 758.12l516.13 669.41 0 48.04 -512.76 -664.58 0 -7.15 0 0c0,-15.52 -1.15,-30.79 -3.37,-45.71z"/>
   <path class="fil0" d="M15302.33 0.03l431.42 559.16c-18.59,-12.02 -38.59,-21.99 -59.67,-29.58l-408.32 -529.59 36.57 0zm548.75 711.24l527.06 683.12 0 48.38 -513.99 -666.63c-1.99,-22.4 -6.4,-44.14 -13.07,-64.86z"/>
   <path class="fil0" d="M15328.41 0.03l1049.73 1361.48 0 48.07 -520.54 -674.68c-12.06,-52.09 -37.79,-99 -74.91,-136.14l0 0c-20.68,-20.68 -44.41,-38.34 -70.39,-52.18l-421.69 -546.55 37.8 0z"/>
   <path class="fil0" d="M15350.81 0.03l1027.32 1330.32 0 50.65 -537.37 -696.97c-13.93,-31.82 -33.51,-60.69 -58.08,-85.27l0 0c-7.81,-7.81 -16.07,-15.19 -24.7,-22.09l-444.6 -576.63 37.43 0z"/>
   <polygon class="fil0" points="15376.7,0.03 16378.14,1297.97 16378.14,1346.3 15340.13,0.03 "/>
   <polygon class="fil0" points="15402.79,0.03 16378.14,1265.03 16378.14,1313.15 15364.99,0.03 "/>
   <polygon class="fil0" points="15427.66,0.03 16378.14,1231.94 16378.14,1280.24 15391.06,0.03 "/>
   <polygon class="fil0" points="15450.41,0.03 16378.14,1203.27 16378.14,1249.84 15414.5,0.03 "/>
   <polygon class="fil0" points="15477.15,0.03 16378.14,1168.59 16378.14,1216.73 15439.39,0.03 "/>
   <polygon class="fil0" points="15502.05,0.03 16378.14,1135.53 16378.14,1183.79 15465.44,0.03 "/>
   <polygon class="fil0" points="15524.77,0.03 16378.14,1106.83 16378.14,1155 15487.02,0.03 "/>
   <polygon class="fil0" points="15549.69,0.03 16378.14,1073.78 16378.14,1122 15513.07,0.03 "/>
   <polygon class="fil0" points="15576.44,0.03 16378.14,1039.11 16378.14,1087.33 15539.8,0.03 "/>
   <path class="fil0" d="M15602.78 0.46l775.35 1005.62 0 52.5 -816.72 -1058.55 16.16 0 0 0c8.43,0 16.83,0.15 25.21,0.43z"/>
   <path class="fil0" d="M15625.22 1.51l752.92 975.86 0 48.18 -790.66 -1025.47c12.64,0.17 25.21,0.65 37.74,1.42z"/>
   <path class="fil0" d="M15652.94 3.73l725.2 940.56 0 46.57 -763.24 -989.92c12.75,0.62 25.43,1.54 38.05,2.78z"/>
   <path class="fil0" d="M15682.35 7.18l695.79 902.43 0 48.26 -736.99 -955.2c13.82,1.15 27.55,2.65 41.2,4.51z"/>
   <path class="fil0" d="M15706.87 10.92l671.27 870.03 0 48.14 -712.43 -924.02c13.83,1.59 27.54,3.53 41.17,5.85z"/>
   <path class="fil0" d="M15737.31 16.71l640.82 831.13 0 48.28 -684.62 -887.32c14.72,2.24 29.32,4.87 43.8,7.91z"/>
   <path class="fil0" d="M15767.73 23.76l610.4 791.14 0 48.13 -654.66 -849.1c14.88,2.86 29.65,6.13 44.26,9.83z"/>
   <path class="fil0" d="M15797.45 31.9l580.44 752.3c0.16,6.54 0.24,13.09 0.24,19.66l0 28.77 -626.67 -812.78c15.49,3.57 30.82,7.58 45.99,12.05z"/>
   <path class="fil0" d="M15831.88 42.9l544.35 706.01c1.16,16.81 1.79,33.73 1.88,50.77l-595.66 -772.04c16.69,4.56 33.17,9.65 49.43,15.26z"/>
   <path class="fil0" d="M15866.93 55.92l505.84 655.63c2.08,17.78 3.55,35.73 4.43,53.81l-561.08 -727.72c17.18,5.53 34.12,11.63 50.81,18.28z"/>
   <path class="fil0" d="M15905.66 72.52l461.28 598.28c3.15,18.58 5.64,37.35 7.47,56.27l-521.73 -676.67c17.95,6.76 35.62,14.13 52.98,22.12z"/>
   <path class="fil0" d="M15943.43 91.12l415.49 538.88c4.66,20.84 8.52,41.95 11.51,63.3l-486.31 -630.31c20.18,8.59 39.97,17.98 59.31,28.12z"/>
   <path class="fil0" d="M15987.82 116.2l358.41 464.53c6.71,23.01 12.42,46.41 17.07,70.16l-439.15 -569.57c21.77,10.7 43.01,22.35 63.66,34.88z"/>
   <path class="fil0" d="M16040.55 151.03l286.03 370.98c10.15,26.83 18.9,54.3 26.15,82.32l-386.31 -500.7c25.59,14.49 50.34,30.33 74.13,47.4z"/>
   <path class="fil0" d="M16338.34 555.3l-327.72 -424.75c47.94,31.29 92.45,67.44 132.65,107.64l0 0c88.04,88.05 155.5,196.68 195.07,317.11z"/>
   <path class="fil1" d="M683.19 1529.37c-268.13,0 -402.2,187.31 -402.2,413.21 0,225.88 134.07,413.21 402.2,413.21 266.28,0 400.35,-187.33 400.35,-413.21 0,-225.9 -134.07,-413.21 -400.35,-413.21zm0 -255.28c455.46,0 683.19,319.56 683.19,668.49 0,348.93 -227.72,668.48 -683.19,668.48 -455.47,0 -683.19,-319.55 -683.19,-668.48 0,-348.93 227.71,-668.49 683.19,-668.49z"/>
   <path class="fil1" d="M2130.16 2342.93c108.36,0 209.36,-23.86 209.36,-161.59 0,-137.76 -101,-161.63 -209.36,-161.63l-284.65 0 0 323.22 284.65 0zm-1.85 -565.63c253.47,0 492.19,86.31 492.19,404.05 0,319.52 -238.72,404.01 -492.19,404.01l-558.29 0 0 -1285.55 945.82 0 0 247.93 -670.33 0 0 229.56 282.8 0z"/>
   <path class="fil1" d="M3261.33 2342.93l222.21 0c141.42,0 260.78,-38.57 260.78,-189.15 0,-150.59 -119.37,-189.15 -260.78,-189.15l-222.21 0 0 378.3zm-275.48 242.43l0 -1037.62 -304.86 0 0 -247.93 580.34 0 0 422.4 209.36 0c310.37,1.81 554.63,99.16 554.63,431.57 0,332.41 -244.27,431.57 -554.63,431.57l-484.84 0z"/>
   <path class="fil1" d="M4664.26 1918.7l246.11 0 0 -376.49 -246.11 0c-139.57,0 -235.07,58.77 -235.07,187.33 0,128.56 95.5,189.15 235.07,189.15zm-589.5 666.64l358.09 -471.99c-165.25,-55.09 -286.46,-174.45 -286.46,-383.81 0,-308.55 244.23,-429.75 516.06,-429.75l523.38 0 0 1285.55 -275.45 0 0 -437.08 -192.84 0 -325.06 437.08 -317.71 0z"/>
   <path class="fil1" d="M6080.06 1274.08c128.56,0 257.12,27.56 367.32,82.64l0 262.63c-82.64,-64.28 -202.04,-101.03 -321.4,-101.03 -225.88,0 -453.62,128.59 -453.62,438.95 -1.85,282.83 229.56,407.7 453.62,407.7 132.22,0 253.43,-36.75 330.57,-106.51l0 269.95c-110.2,53.26 -236.92,82.64 -372.83,82.64 -343.39,0 -694.17,-205.7 -694.17,-653.78 1.81,-470.14 347.08,-683.19 690.51,-683.19z"/>
   <polygon class="fil1" points="7789.69,1299.8 7789.69,2585.35 7514.2,2585.35 7514.2,2067.45 6937.55,2067.45 6937.55,2585.35 6662.08,2585.35 6662.08,1299.8 6937.55,1299.8 6937.55,1817.68 7514.2,1817.68 7514.2,1299.8 "/>
   <path class="fil1" d="M8544.33 1918.7l246.08 0 0 -376.49 -246.08 0c-139.57,0 -235.07,58.77 -235.07,187.33 0,128.56 95.5,189.15 235.07,189.15zm-589.53 666.64l358.12 -471.99c-165.28,-55.09 -286.49,-174.45 -286.49,-383.81 0,-308.55 244.24,-429.75 516.06,-429.75l523.41 0 0 1285.55 -275.49 0 0 -437.08 -192.84 0 -325.06 437.08 -317.71 0z"/>
   <polygon class="fil1" points="10246.61,1299.8 10246.61,1542.22 9616.69,1542.22 9616.69,1815.86 10191.52,1815.86 10191.52,2056.44 9616.69,2056.44 9616.69,2342.93 10257.64,2342.93 10257.64,2585.35 9341.21,2585.35 9341.21,1299.8 "/>
   <polygon class="fil1" points="11864.42,1299.8 11864.42,2585.35 11588.93,2585.35 11588.93,1793.81 11249.17,2309.87 11089.42,2309.87 10749.66,1792 10749.66,2585.35 10474.17,2585.35 10474.17,1299.8 10729.45,1299.8 11170.21,1968.29 11609.14,1299.8 "/>
   <path class="fil1" d="M12231.53 2609.23c-82.64,0 -156.09,-47.76 -156.09,-150.61 0,-102.81 73.45,-150.58 156.09,-150.58 82.67,0 154.27,47.76 154.27,150.58 0,102.85 -71.6,150.61 -154.27,150.61z"/>
   <path class="fil1" d="M13094.62 1542.21l-222.21 0 0 378.33 222.21 0c141.42,0 260.78,-38.57 260.78,-189.15 0,-152.46 -119.37,-189.18 -260.78,-189.18zm-12.86 -242.42c310.36,0 554.62,99.19 554.62,431.6 0,332.39 -244.27,431.57 -554.62,431.57l-209.36 0 0 422.38 -275.49 0 0 -1285.55 484.84 0z"/>
   <path class="fil1" d="M14626.13 2265.8c260.78,-20.21 356.28,-161.6 356.28,-323.22 0,-161.63 -95.5,-303.05 -356.28,-323.25l0 646.46zm-264.47 0l0 -646.46c-266.29,18.39 -361.78,159.78 -361.78,323.25 0,163.43 95.49,304.85 361.78,323.22zm0 391.18l0 -161.62c-385.66,-16.52 -637.27,-214.86 -637.27,-552.78 0,-337.92 251.61,-536.27 637.27,-552.79l0 -161.62 264.47 0 0 161.62c382,18.36 631.76,216.71 631.76,552.79 0,336.07 -249.77,534.41 -631.76,552.78l0 161.62 -264.47 0z"/>
  </g>
 </g>
</svg>
