<?xml version="1.0" encoding="UTF-8"?>
<!DOCTYPE svg PUBLIC "-//W3C//DTD SVG 1.1//EN" "http://www.w3.org/Graphics/SVG/1.1/DTD/svg11.dtd">
<!-- Creator: CorelDRAW 2018 (64-Bit) -->
<svg xmlns="http://www.w3.org/2000/svg" xml:space="preserve" width="150px" height="42px" version="1.1" style="shape-rendering:geometricPrecision; text-rendering:geometricPrecision; image-rendering:optimizeQuality; fill-rule:evenodd; clip-rule:evenodd"
viewBox="0 0 28.01 7.77"
 xmlns:xlink="http://www.w3.org/1999/xlink">
 <defs>
  <style type="text/css">
   <![CDATA[
    .fil3 {fill:#47A9FF}
    .fil4 {fill:#003A9E;fill-rule:nonzero}
    .fil5 {fill:#F57900;fill-rule:nonzero}
    .fil0 {fill:url(#id0)}
    .fil1 {fill:url(#id1)}
    .fil2 {fill:url(#id2)}
   ]]>
  </style>
  <linearGradient id="id0" gradientUnits="userSpaceOnUse" x1="0.1" y1="3.28" x2="12.65" y2="4.5">
   <stop offset="0" style="stop-opacity:1; stop-color:#003A9E"/>
   <stop offset="0.239216" style="stop-opacity:1; stop-color:#2371CE"/>
   <stop offset="1" style="stop-opacity:1; stop-color:#47A9FF"/>
  </linearGradient>
  <linearGradient id="id1" gradientUnits="userSpaceOnUse" x1="7.54" y1="2.58" x2="11.58" y2="6.79">
   <stop offset="0" style="stop-opacity:1; stop-color:#003A9E"/>
   <stop offset="0.188235" style="stop-opacity:1; stop-color:#2371CE"/>
   <stop offset="1" style="stop-opacity:1; stop-color:#47A9FF"/>
  </linearGradient>
  <linearGradient id="id2" gradientUnits="userSpaceOnUse" x1="5.81" y1="7.77" x2="6.94" y2="4.79">
   <stop offset="0" style="stop-opacity:1; stop-color:#F57900"/>
   <stop offset="0.811765" style="stop-opacity:1; stop-color:#FA5A1D"/>
   <stop offset="1" style="stop-opacity:1; stop-color:#FF3B3B"/>
  </linearGradient>
 </defs>
 <g id="Слой_x0020_1">
  <metadata id="CorelCorpID_0Corel-Layer"/>
  <path class="fil0" d="M10.36 7.07l0 0c0.2,0.21 0.48,0.33 0.79,0.33 0.31,0 0.6,-0.12 0.8,-0.33l0 0 0 0 0.8 -0.79 -0.8 -0.8 0 0 -0.8 -0.8 -1.59 -1.59 -1.59 -1.59 -0.8 -0.8c-0.2,-0.2 -0.48,-0.33 -0.8,-0.33 -0.31,0 -0.59,0.13 -0.8,0.33l-0.79 0.8 -1.59 1.59 -1.6 1.59 -1.59 1.6 0.8 0.79 0 0c0.2,0.21 0.48,0.33 0.79,0.33 0.31,0 0.59,-0.12 0.79,-0.32l0.02 -0.01 0.79 -0.79 1.59 -1.6 1.59 -1.59 1.6 1.59 1.59 1.6 0.8 0.79z"/>
  <path class="fil1" d="M10.36 7.07l0 0c0.2,0.21 0.48,0.33 0.79,0.33 0.31,0 0.6,-0.12 0.8,-0.33l0 0 0 0 0.8 -0.79 -0.58 -0.58 -1.02 -1.02 -0.99 -0.99 -0.6 -0.6 -0.8 -0.8c-0.2,-0.2 -0.48,-0.33 -0.79,-0.33 -0.31,0 -0.6,0.13 -0.8,0.34l-0.8 0.79 0 0 0 0 1.6 1.59 0.79 0.8 0.8 0.8 0.8 0.79z"/>
  <path class="fil2" d="M6.54 7.71l1.26 -1.27c0.09,-0.09 0.09,-0.24 0,-0.33l-1.26 -1.26c-0.09,-0.09 -0.24,-0.09 -0.33,0l-1.26 1.26c-0.1,0.09 -0.1,0.24 0,0.33l1.26 1.27c0.09,0.09 0.24,0.09 0.33,0z"/>
  <path class="fil3" d="M1.59 2.47l0.98 -0.97 -0.98 -0.98 -0.97 0.98 0.97 0.97zm0.17 0.45l1.26 -1.26c0.09,-0.09 0.09,-0.24 0,-0.33l-1.26 -1.26c-0.09,-0.09 -0.24,-0.09 -0.33,0l-1.26 1.26c-0.1,0.09 -0.1,0.24 0,0.33l1.26 1.26c0.09,0.1 0.24,0.1 0.33,0z"/>
  <path class="fil4" d="M14.69 5.39l0.4 0c0.11,0 0.21,-0.05 0.29,-0.12 0.07,-0.07 0.12,-0.17 0.12,-0.28l0 -0.42 1.04 0c0.47,0 0.91,-0.18 1.23,-0.47 0.31,-0.29 0.5,-0.69 0.5,-1.14 0,-0.44 -0.19,-0.84 -0.5,-1.12 -0.32,-0.3 -0.76,-0.48 -1.23,-0.48l-1.45 0c-0.11,0 -0.21,0.05 -0.29,0.12l0 0c-0.07,0.07 -0.11,0.17 -0.11,0.29l0 3.62zm13.2 0.6c0.08,-0.08 0.12,-0.18 0.12,-0.29l0 -1.11 -0.5 0 0 -3.23 -0.81 0 0 3.23 -2.03 0 0 -3.23 -0.81 0 0 4.03 3.34 0 0 0.71 0.41 0c0.11,0 0.21,-0.04 0.28,-0.11zm-12.39 -2.32l0 -1.52 1 0c0.26,0 0.49,0.09 0.67,0.24 0.18,0.15 0.29,0.35 0.29,0.57 0,0.23 -0.1,0.44 -0.28,0.59 -0.16,0.14 -0.39,0.23 -0.65,0.23l-1.03 0 0 -0.11zm3.53 1.72l0.9 0 2.1 -2.9 0 2.9 0.81 0 0 -4.03 -0.89 0 -2.11 2.9 0 -2.9 -0.81 0 0 4.03z"/>
  <path class="fil5" d="M14.68 7.34l0 -0.17 0.03 0c0.05,0 0.08,-0.03 0.09,-0.09l0.04 -0.51 0.53 0 0 0.76 -0.18 0 0 -0.6 -0.19 0 -0.03 0.35c-0.01,0.17 -0.1,0.26 -0.26,0.26l-0.03 0z"/>
  <polygon id="1" class="fil5" points="16.12,6.57 16.28,6.57 16.28,7.33 16.1,7.33 16.1,6.88 15.78,7.33 15.62,7.33 15.62,6.57 15.79,6.57 15.79,7.02 "/>
  <path id="2" class="fil5" d="M16.94 6.57l0.18 0 0 0.76 -0.18 0 0 -0.29c-0.05,0.06 -0.11,0.09 -0.19,0.09 -0.07,0 -0.12,-0.02 -0.17,-0.07 -0.05,-0.04 -0.07,-0.1 -0.07,-0.18l0 -0.31 0.17 0 0 0.27c0,0.04 0.02,0.07 0.04,0.09 0.02,0.02 0.05,0.03 0.09,0.03 0.03,0 0.06,-0.01 0.09,-0.03 0.03,-0.02 0.04,-0.06 0.04,-0.1l0 -0.26z"/>
  <polygon id="3" class="fil5" points="17.36,7.33 17.36,6.57 17.54,6.57 17.54,6.87 17.82,6.87 17.82,6.57 18,6.57 18,7.33 17.82,7.33 17.82,7.03 17.54,7.03 17.54,7.33 "/>
  <path id="4" class="fil5" d="M18.25 6.57l0.17 0 0 0.26 0.13 0c0.09,0 0.15,0.02 0.2,0.07 0.06,0.04 0.08,0.1 0.08,0.18 0,0.07 -0.02,0.13 -0.08,0.18 -0.05,0.04 -0.11,0.07 -0.2,0.07l-0.3 0 0 -0.76zm0.67 0.76l0 -0.76 0.18 0 0 0.76 -0.18 0zm-0.5 -0.34l0 0.18 0.13 0c0.03,0 0.06,-0.01 0.08,-0.03 0.01,-0.01 0.02,-0.04 0.02,-0.06 0,-0.03 -0.01,-0.05 -0.02,-0.07 -0.02,-0.01 -0.05,-0.02 -0.08,-0.02l-0.13 0z"/>
  <path id="5" class="fil5" d="M19.67 6.52c-0.05,0 -0.1,-0.02 -0.13,-0.05 -0.03,-0.03 -0.05,-0.08 -0.05,-0.13l0.12 0c0,0.02 0.01,0.04 0.02,0.05 0.01,0.02 0.02,0.03 0.04,0.03 0.02,0 0.04,-0.01 0.05,-0.03 0.01,-0.01 0.02,-0.03 0.02,-0.05l0.12 0c0,0.05 -0.02,0.1 -0.05,0.13 -0.04,0.03 -0.08,0.05 -0.14,0.05zm0.17 0.05l0.17 0 0 0.76 -0.18 0 0 -0.45 -0.33 0.45 -0.16 0 0 -0.76 0.18 0 0 0.45 0.32 -0.45z"/>
  <polygon id="6" class="fil5" points="20.9,7.33 20.9,6.57 21.08,6.57 21.08,6.87 21.15,6.87 21.32,6.57 21.53,6.57 21.31,6.94 21.54,7.33 21.32,7.33 21.15,7.03 21.08,7.03 21.08,7.33 "/>
  <path id="7" class="fil5" d="M22.15 6.57l0.3 0.76 -0.19 0 -0.06 -0.16 -0.3 0 -0.06 0.16 -0.19 0 0.3 -0.76 0.2 0zm-0.19 0.44l0.18 0 -0.09 -0.24 -0.09 0.24z"/>
  <path id="8" class="fil5" d="M22.63 7.33l0 -0.76 0.54 0 0 0.16 -0.36 0 0 0.1 0.13 0c0.09,0 0.15,0.02 0.2,0.07 0.05,0.04 0.08,0.1 0.08,0.18 0,0.07 -0.03,0.13 -0.08,0.18 -0.05,0.04 -0.11,0.07 -0.2,0.07l-0.31 0zm0.18 -0.16l0.13 0c0.03,0 0.06,-0.01 0.07,-0.03 0.02,-0.01 0.03,-0.04 0.03,-0.06 0,-0.03 -0.01,-0.05 -0.03,-0.07 -0.01,-0.01 -0.04,-0.02 -0.07,-0.02l-0.13 0 0 0.18z"/>
  <polygon id="9" class="fil5" points="23.94,6.57 24.1,6.57 24.1,7.33 23.92,7.33 23.92,6.88 23.6,7.33 23.44,7.33 23.44,6.57 23.61,6.57 23.61,7.02 "/>
  <polygon id="10" class="fil5" points="24.34,7.33 24.34,6.57 24.52,6.57 24.52,6.87 24.81,6.87 24.81,6.57 24.98,6.57 24.98,7.33 24.81,7.33 24.81,7.03 24.52,7.03 24.52,7.33 "/>
  <polygon id="11" class="fil5" points="25.23,7.33 25.23,6.57 25.75,6.57 25.75,6.73 25.41,6.73 25.41,6.87 25.73,6.87 25.73,7.03 25.41,7.03 25.41,7.17 25.76,7.17 25.76,7.33 "/>
  <polygon id="12" class="fil5" points="26.15,7.33 26.15,6.73 25.94,6.73 25.94,6.57 26.54,6.57 26.54,6.73 26.33,6.73 26.33,7.33 "/>
 </g>
</svg>
